<?xml version="1.0" standalone="no"?>
<!DOCTYPE svg PUBLIC "-//W3C//DTD SVG 20010904//EN"
 "http://www.w3.org/TR/2001/REC-SVG-20010904/DTD/svg10.dtd">
<svg version="1.0" xmlns="http://www.w3.org/2000/svg"
 width="786.000000pt" height="576.000000pt" viewBox="0 0 786.000000 576.000000"
 preserveAspectRatio="xMidYMid meet">
<metadata>
Created by potrace 1.10, written by Peter Selinger 2001-2011
</metadata>
<g transform="translate(0.000000,576.000000) scale(0.100000,-0.100000)"
fill="#050714" stroke="none">
<path d="M6145 4448 c-125 -43 -218 -115 -257 -198 -28 -61 -34 -230 -19 -573
12 -264 11 -281 -21 -332 -7 -10 -58 -80 -113 -155 -128 -172 -153 -220 -255
-490 -29 -77 -57 -131 -125 -244 -17 -28 -23 -54 -24 -100 -1 -63 2 -72 31
-94 15 -12 21 -11 44 7 40 31 62 26 116 -29 27 -28 53 -48 57 -46 4 3 11 74
14 158 4 105 11 169 23 203 29 87 46 129 60 157 8 14 14 31 14 37 0 6 20 44
44 85 42 72 96 206 96 241 0 21 35 90 69 135 50 67 61 96 61 162 0 78 9 97 37
77 11 -8 36 -33 56 -55 46 -52 92 -74 150 -74 58 0 158 38 165 62 2 10 28 30
56 44 28 14 67 35 87 46 20 12 43 19 52 15 9 -3 40 -55 68 -114 28 -59 57
-119 64 -133 8 -15 30 -73 49 -130 19 -58 51 -134 70 -170 82 -152 94 -183
111 -300 16 -111 16 -260 0 -405 -3 -27 -6 -79 -8 -115 -2 -36 -6 -71 -10 -78
-5 -6 -3 -21 4 -33 6 -12 11 -37 11 -55 0 -39 16 -54 32 -32 10 14 14 14 31 2
10 -8 42 -14 71 -14 41 0 59 5 82 25 17 14 36 25 44 25 27 0 87 82 185 250
l38 65 0 125 c0 114 -3 134 -33 230 -19 58 -40 120 -48 138 -8 18 -14 37 -14
42 0 5 -16 42 -35 82 -36 75 -93 161 -180 268 -27 34 -59 79 -71 101 -12 21
-33 54 -48 73 -14 19 -26 39 -26 44 0 5 -11 29 -25 53 -44 79 -65 131 -65 159
0 14 -4 51 -10 81 -5 30 -14 126 -19 214 -5 88 -15 176 -22 195 -33 94 -55
140 -95 195 -48 66 -87 100 -149 132 -100 51 -110 53 -253 52 -75 0 -150 -5
-167 -11z m375 -468 c74 -109 75 -111 74 -181 0 -58 -4 -72 -28 -104 l-28 -36
21 -23 c12 -12 21 -34 21 -48 0 -28 -34 -66 -45 -49 -3 6 1 11 9 11 23 0 20
23 -6 48 l-23 21 -29 -30 c-16 -16 -37 -29 -46 -29 -10 0 -23 -7 -30 -15 -7
-8 -20 -15 -29 -15 -9 0 -22 -5 -28 -11 -17 -17 -112 -49 -144 -49 -15 0 -39
-4 -54 -10 -30 -11 -72 6 -117 47 -24 23 -26 30 -21 77 5 48 3 54 -25 82 -30
31 -47 75 -58 150 -9 56 27 137 72 165 l34 21 45 -38 c54 -44 73 -81 77 -149
l3 -50 49 -3 c42 -3 47 -6 43 -22 -3 -13 1 -21 15 -26 34 -11 43 9 31 73 -15
83 -7 125 30 161 44 43 76 57 126 57 35 0 47 -5 61 -25z m-20 -445 c0 -15 -38
-40 -47 -31 -3 3 2 12 11 21 9 9 16 21 16 26 0 6 5 7 10 4 6 -3 10 -13 10 -20z"/>
<path d="M6404 3891 c-26 -12 -54 -79 -54 -131 0 -44 8 -50 79 -64 30 -5 38
-2 67 30 26 27 34 44 34 73 0 67 -68 116 -126 92z"/>
<path d="M5982 3865 c-7 -14 -12 -35 -12 -46 0 -22 38 -106 51 -115 5 -3 9
-14 9 -25 0 -25 20 -25 27 1 5 18 36 34 59 29 35 -6 48 15 14 24 -16 4 -20 14
-20 47 0 26 -8 56 -21 76 -17 29 -26 34 -58 34 -31 0 -40 -5 -49 -25z"/>
<path d="M1510 4344 c-43 -16 -65 -32 -86 -66 -40 -63 -29 -132 31 -188 23
-22 36 -25 95 -25 82 0 110 20 135 95 15 44 14 51 -2 93 -10 25 -30 55 -45 66
-26 21 -100 35 -128 25z"/>
<path d="M191 4237 c-16 -16 -14 -74 4 -81 8 -3 37 -8 65 -12 93 -12 85 38 85
-562 0 -602 5 -565 -84 -578 -25 -4 -54 -11 -63 -16 -23 -11 -25 -73 -2 -82 9
-3 236 -6 505 -6 l489 0 1 28 c5 87 5 302 1 330 l-4 32 -63 0 c-38 0 -66 -5
-72 -12 -6 -7 -13 -51 -15 -98 -3 -47 -13 -102 -21 -123 l-16 -37 -196 2 -196
3 1 545 c0 610 -6 562 77 575 25 4 52 9 59 12 18 7 18 67 0 82 -19 16 -539 14
-555 -2z"/>
<path d="M5285 3970 c-9 -14 17 -22 78 -24 51 -1 52 -2 57 -34 3 -18 10 -32
15 -31 6 0 9 5 8 9 -1 4 4 13 11 20 11 9 16 7 21 -10 11 -35 30 -16 33 33 3
50 -10 62 -33 30 -11 -15 -14 -15 -36 0 -26 19 -143 24 -154 7z"/>
<path d="M5337 3923 c-10 -9 -9 -43 2 -43 5 0 11 6 14 13 6 17 -7 40 -16 30z"/>
<path d="M2185 3890 c-56 -7 -261 -74 -282 -91 -19 -17 -16 -57 6 -69 11 -5
33 -7 49 -4 16 3 39 1 51 -5 21 -12 21 -15 21 -350 0 -337 0 -338 -22 -359
-14 -12 -40 -22 -63 -24 -43 -3 -52 -18 -41 -64 l6 -24 238 2 237 3 3 41 3 41
-43 6 c-79 11 -78 6 -78 363 0 301 1 315 20 334 11 11 32 20 47 20 15 0 53 5
85 12 50 10 64 10 115 -8 53 -18 59 -23 85 -74 l28 -55 0 -275 c-1 -311 0
-310 -72 -319 -42 -6 -43 -7 -40 -41 2 -19 7 -38 11 -43 4 -4 111 -6 237 -5
l229 3 3 41 3 41 -51 5 c-28 3 -56 10 -61 15 -7 7 -11 129 -12 324 -2 267 -5
322 -20 369 -27 86 -58 131 -110 164 -46 28 -55 30 -148 29 -69 0 -109 -5
-132 -16 -17 -8 -52 -23 -77 -33 -25 -10 -52 -23 -60 -30 -8 -7 -28 -14 -45
-16 -29 -3 -30 -1 -33 42 -3 39 -16 63 -32 58 -3 0 -27 -4 -55 -8z"/>
<path d="M3345 3893 c-11 -2 -33 -10 -50 -18 -16 -8 -62 -26 -102 -40 -79 -29
-96 -43 -91 -77 3 -20 9 -23 58 -26 30 -2 58 -9 62 -15 4 -7 8 -145 8 -307 1
-262 3 -301 20 -350 46 -135 145 -190 299 -169 42 6 101 23 136 40 34 16 65
29 69 29 4 0 20 10 36 22 36 26 47 18 52 -37 l3 -40 174 -3 c191 -3 204 1 199
52 -3 29 -6 31 -51 36 -87 10 -82 -16 -82 466 0 403 -1 426 -18 436 -21 11
-120 2 -146 -14 -9 -5 -59 -24 -111 -42 l-95 -32 0 -34 0 -35 55 -3 c30 -2 58
-9 62 -15 4 -7 8 -150 8 -320 l0 -307 -27 -11 c-16 -6 -60 -16 -100 -22 -111
-17 -184 14 -221 91 -15 32 -18 84 -22 392 l-5 355 -50 2 c-27 0 -59 -1 -70
-4z"/>
<path d="M1515 3882 c-6 -5 -41 -19 -80 -32 -125 -41 -155 -57 -155 -82 0 -38
13 -47 75 -50 l60 -3 3 -339 c2 -335 2 -340 -19 -362 -15 -16 -35 -24 -68 -26
l-46 -3 0 -40 0 -40 249 -3 c272 -3 279 -1 274 52 -3 30 -5 31 -62 38 -32 4
-62 10 -65 14 -3 3 -8 202 -11 442 l-5 437 -70 3 c-39 1 -75 -1 -80 -6z"/>
<path d="M4514 3882 l-222 -2 -6 -26 c-12 -45 1 -62 57 -74 52 -11 87 -33 87
-56 0 -7 4 -14 8 -16 4 -1 37 -45 72 -96 36 -51 86 -122 113 -159 26 -36 47
-72 47 -80 0 -8 -27 -49 -60 -91 -223 -287 -204 -268 -280 -288 -44 -11 -45
-12 -45 -50 l0 -39 190 0 190 0 3 43 c3 42 3 42 -30 42 -36 0 -58 15 -58 38 0
7 19 39 43 70 43 59 50 69 89 134 23 38 34 44 54 30 15 -10 164 -236 164 -248
0 -6 -18 -18 -41 -27 -37 -15 -40 -19 -37 -49 l3 -33 224 -3 c245 -3 254 -1
249 52 -3 27 -7 31 -48 39 -70 14 -60 3 -207 220 -40 59 -91 132 -114 162 -39
51 -40 55 -26 82 8 15 27 41 41 56 14 15 30 36 36 47 6 10 27 39 48 64 20 25
55 68 76 95 30 39 47 52 75 57 62 11 72 21 69 62 l-3 37 -130 5 c-71 3 -151 3
-178 1 -41 -3 -48 -7 -54 -29 -8 -32 7 -56 38 -60 56 -9 62 -35 19 -95 -17
-23 -51 -70 -75 -104 -25 -35 -49 -63 -53 -63 -15 0 -154 219 -150 236 2 10
16 21 32 25 16 5 32 13 36 19 9 15 -3 73 -15 74 -6 1 -110 0 -231 -2z"/>
<path d="M4190 2668 c-69 -4 -183 -10 -255 -13 -71 -3 -173 -11 -225 -19 -52
-8 -169 -15 -260 -16 -160 -1 -204 -5 -225 -20 -5 -4 -93 -10 -195 -13 -137
-4 -198 -10 -234 -23 -36 -12 -68 -15 -125 -12 -85 6 -144 0 -135 -13 3 -5 25
-9 49 -9 39 0 45 -3 51 -25 6 -25 7 -25 115 -25 60 0 109 -4 109 -9 0 -10 -49
-21 -92 -21 -51 0 -26 -24 38 -36 l59 -11 -50 -7 c-80 -12 -84 -15 -45 -36 19
-11 54 -19 77 -20 44 0 63 -14 44 -33 -14 -14 -120 -12 -134 2 -14 14 -131 15
-122 1 3 -5 23 -10 44 -10 20 0 46 -7 57 -15 11 -8 41 -15 71 -15 54 0 67 -8
57 -34 -7 -18 -39 -22 -49 -6 -3 6 -28 10 -55 10 -27 0 -60 4 -74 10 -30 11
-56 4 -56 -16 0 -10 13 -14 46 -14 25 0 55 -5 67 -12 27 -15 200 -20 242 -7
17 5 77 13 135 19 58 5 155 16 215 25 61 8 144 19 185 24 41 6 105 11 141 11
36 0 79 4 95 10 30 10 99 20 324 44 74 9 162 20 195 26 33 5 80 10 105 10 25
0 63 7 85 15 22 8 61 14 86 15 25 0 59 4 75 10 16 5 65 14 109 20 84 10 172
27 290 55 39 9 90 21 115 26 24 5 49 14 54 19 6 6 19 10 31 10 28 1 99 44 103
63 5 22 -30 38 -133 59 -79 16 -138 18 -485 16 -217 -1 -451 -5 -520 -10z
m-1090 -118 c0 -6 -26 -10 -58 -10 -38 0 -66 -6 -82 -17 -18 -13 -43 -16 -106
-15 -119 3 -150 17 -56 27 39 4 72 11 72 16 0 5 52 9 115 9 70 0 115 -4 115
-10z m70 -24 c0 -9 -40 -13 -46 -5 -3 5 6 9 20 9 14 0 26 -2 26 -4z m-67 -87
c-9 -9 -22 -9 -44 -3 -44 13 -48 32 -7 36 39 4 69 -15 51 -33z m-19 -57 c9
-15 -6 -52 -20 -52 -18 0 -28 24 -20 45 6 16 32 20 40 7z m-94 -21 c0 -11 -5
-23 -11 -27 -15 -9 -33 12 -26 30 9 23 37 20 37 -3z m50 -100 c0 -14 -28 -21
-86 -21 -50 0 -71 12 -41 23 21 9 127 7 127 -2z"/>
<path d="M2120 2520 c-16 -5 16 -8 85 -8 69 0 101 3 85 8 -14 4 -52 8 -85 8
-33 0 -71 -4 -85 -8z"/>
<path d="M5341 2186 c-16 -19 -11 -46 11 -60 28 -17 37 5 18 42 -14 29 -18 32
-29 18z"/>
<path d="M2566 2181 c-8 -12 106 -25 136 -15 22 7 22 7 3 15 -28 11 -133 11
-139 0z"/>
<path d="M2420 2151 l-35 -7 43 -7 c46 -8 95 0 86 14 -6 10 -40 10 -94 0z"/>
<path d="M6817 2153 c-3 -5 -6 -45 -6 -90 -1 -104 -17 -171 -51 -203 -14 -14
-32 -34 -40 -45 -15 -20 -133 -115 -144 -115 -3 0 -21 -11 -40 -23 -71 -49
-217 -81 -351 -79 -151 3 -227 27 -283 89 -27 29 -43 23 -23 -10 23 -36 31
-87 15 -87 -8 0 -14 -10 -14 -22 0 -12 -12 -39 -26 -60 -20 -28 -35 -39 -63
-43 -20 -4 -58 -11 -84 -16 -52 -10 -93 -4 -117 16 -8 7 -51 18 -95 25 -76 11
-182 35 -215 48 -8 3 -42 7 -75 8 -33 2 -84 6 -112 9 -51 7 -53 8 -53 37 0 18
8 36 21 47 17 13 19 21 11 41 -18 46 -32 120 -32 164 0 51 -8 78 -21 70 -5 -3
-9 -77 -9 -165 0 -88 -5 -169 -10 -179 -14 -26 24 -66 76 -79 21 -5 66 -17 99
-26 33 -9 87 -23 120 -30 59 -14 136 -35 205 -56 34 -10 79 -29 130 -54 56
-28 125 -43 170 -35 61 10 78 18 127 57 98 78 169 89 587 88 220 0 196 7 249
-74 34 -53 96 -81 181 -81 102 0 158 31 286 160 36 36 82 78 103 94 47 34 37
55 -14 30 -53 -27 -55 -28 -82 -47 -41 -29 -173 -58 -235 -50 -43 5 -60 13
-97 48 -41 37 -45 46 -45 87 0 25 -7 59 -15 76 -17 34 -11 82 11 82 16 0 29
23 37 68 6 27 4 32 -13 32 -17 0 -20 7 -20 43 0 23 -7 53 -16 66 -13 18 -15
39 -12 96 5 69 -2 109 -15 88z"/>
<path d="M2270 2120 c-13 -8 -13 -10 1 -10 9 0 37 -3 63 -6 38 -6 46 -4 46 10
0 13 -10 16 -47 16 -27 0 -55 -5 -63 -10z"/>
<path d="M5290 2118 c0 -8 -28 -33 -63 -56 -53 -35 -72 -42 -113 -42 -41 0
-55 -5 -82 -29 -20 -19 -30 -35 -26 -45 9 -24 27 -19 45 13 13 22 26 29 64 34
26 4 60 7 76 7 15 0 29 6 32 13 2 7 20 12 43 12 32 0 41 5 52 28 12 24 11 30
-7 53 -13 16 -21 21 -21 12z"/>
<path d="M2080 2080 c0 -5 22 -10 49 -10 28 0 53 5 56 10 4 6 -15 10 -49 10
-31 0 -56 -4 -56 -10z"/>
</g>
</svg>
