<?xml version="1.0" standalone="no"?>
<!DOCTYPE svg PUBLIC "-//W3C//DTD SVG 20010904//EN"
 "http://www.w3.org/TR/2001/REC-SVG-20010904/DTD/svg10.dtd">
<svg version="1.0" xmlns="http://www.w3.org/2000/svg"
 width="540.000000pt" height="543.000000pt" viewBox="0 0 540.000000 543.000000"
 preserveAspectRatio="xMidYMid meet">
<metadata>
Created by potrace 1.10, written by Peter Selinger 2001-2011
</metadata>
<g transform="translate(0.000000,543.000000) scale(0.100000,-0.100000)"
fill="#172eec" stroke="none">
<path d="M3505 5070 c-3 -5 -21 -10 -40 -10 -18 0 -40 -7 -49 -15 -8 -8 -22
-15 -31 -15 -9 0 -29 -6 -43 -13 -15 -8 -61 -31 -102 -52 -76 -38 -122 -68
-174 -115 -45 -40 -166 -162 -166 -167 0 -2 -19 -30 -43 -61 -57 -77 -121
-211 -134 -285 -3 -15 -9 -30 -14 -33 -5 -3 -9 -25 -9 -50 0 -28 4 -43 10 -39
6 3 10 23 10 44 0 22 6 44 15 51 8 7 15 20 15 29 0 9 7 25 15 35 8 11 15 32
15 47 0 15 7 29 15 33 8 3 15 14 15 25 0 11 4 22 9 26 6 3 20 27 33 52 13 26
30 55 38 64 8 8 22 26 30 39 30 47 167 176 230 217 36 24 70 46 76 50 23 17
76 43 89 43 7 0 18 7 25 15 7 8 21 15 31 15 9 0 24 7 33 15 16 17 126 22 126
6 0 -5 -21 -19 -47 -31 -163 -72 -313 -166 -375 -233 -14 -15 -28 -27 -32 -27
-3 0 -19 -14 -34 -32 -15 -17 -45 -50 -67 -74 -59 -63 -164 -235 -165 -271 0
-7 -4 -13 -8 -13 -10 0 -52 -93 -52 -114 0 -27 -12 -46 -30 -46 -10 0 -22 -6
-27 -12 -18 -22 -24 -83 -12 -117 11 -31 14 -33 53 -28 55 6 124 24 163 42 17
8 35 15 39 15 16 0 173 82 185 96 6 8 16 14 21 14 31 0 277 240 308 301 11 21
25 41 30 44 6 4 15 17 21 28 5 12 13 29 18 37 39 63 94 259 105 373 9 91 -1
107 -64 107 -27 0 -52 -4 -55 -10z m-185 -285 c0 -7 -11 -16 -25 -19 -16 -4
-25 -13 -25 -26 0 -11 -7 -20 -15 -20 -8 0 -15 -4 -15 -10 0 -5 7 -10 15 -10
8 0 15 5 15 10 0 6 11 10 25 10 30 0 33 -20 5 -27 -11 -3 -20 -13 -20 -23 0
-43 -153 -114 -182 -84 -9 8 30 81 47 88 8 3 20 17 25 31 5 14 17 25 26 25 10
0 24 7 33 15 61 59 91 73 91 40z m-158 -47 c-6 -6 -19 -7 -29 -3 -17 7 -17 8
2 15 24 9 41 2 27 -12z m-54 -34 c-3 -19 -34 -41 -43 -32 -7 7 25 46 38 47 5
1 7 -6 5 -15z m-54 -80 c10 -25 8 -28 -40 -68 -27 -23 -49 -35 -55 -29 -11 11
17 53 36 53 7 0 18 14 24 30 11 33 26 39 35 14z m231 -79 c0 -10 -6 -20 -12
-22 -8 -3 -13 5 -13 22 0 17 5 25 13 23 6 -3 12 -13 12 -23z m-201 -11 c11
-29 6 -44 -13 -44 -25 0 -32 11 -24 38 6 26 28 29 37 6z m106 -2 c0 -4 -5 -13
-12 -20 -18 -18 -28 -15 -28 8 0 13 7 20 20 20 11 0 20 -4 20 -8z m-260 -63
c0 -20 -15 -26 -24 -10 -8 13 4 42 15 35 5 -3 9 -14 9 -25z m90 0 c0 -12 -7
-19 -20 -19 -22 0 -26 20 -8 38 15 15 28 6 28 -19z"/>
<path d="M1773 3949 c-45 -4 -91 -12 -102 -18 -11 -6 -30 -11 -43 -11 -13 0
-33 -7 -44 -15 -10 -8 -28 -15 -39 -15 -11 0 -29 -7 -39 -15 -11 -8 -26 -15
-34 -15 -8 0 -31 -13 -52 -30 -21 -16 -42 -30 -48 -30 -13 0 -127 -84 -174
-128 -53 -51 -35 -60 20 -11 26 22 73 57 105 77 32 21 73 47 92 58 18 12 44
25 56 29 13 3 38 12 54 20 59 26 132 44 227 56 84 11 113 10 205 -4 147 -22
235 -53 392 -137 152 -81 208 -95 334 -86 82 6 109 13 302 82 230 82 411 128
488 122 l42 -3 -45 -24 c-25 -13 -56 -32 -69 -42 -13 -11 -34 -19 -47 -19 -13
0 -33 -9 -44 -20 -11 -11 -28 -20 -37 -20 -10 0 -38 -14 -63 -30 -25 -16 -55
-30 -66 -30 -12 0 -27 -6 -33 -14 -6 -7 -28 -16 -49 -20 -20 -3 -62 -22 -92
-43 -39 -26 -65 -37 -90 -36 -19 1 -39 -2 -45 -7 -5 -4 -37 -11 -70 -14 -33
-4 -75 -12 -92 -19 -25 -8 -36 -8 -45 1 -7 7 -40 12 -78 12 -54 0 -67 3 -78
20 -12 19 -42 27 -55 13 -10 -10 13 -33 33 -33 10 0 27 -11 38 -25 23 -28 37
-32 46 -10 4 10 20 15 50 15 35 0 45 -4 49 -20 6 -25 18 -25 46 -1 18 16 32
18 76 14 47 -5 54 -3 64 16 13 23 40 28 58 10 11 -11 87 5 108 23 5 4 30 8 56
8 37 0 51 5 62 21 24 33 161 62 195 41 8 -6 1 -14 -24 -26 -20 -9 -39 -15 -42
-12 -8 9 -42 -14 -42 -29 0 -19 58 -29 115 -21 l45 7 0 -35 c0 -20 5 -36 11
-36 6 0 9 -14 7 -32 -2 -24 1 -32 11 -30 19 4 53 -29 47 -45 -4 -8 2 -13 15
-13 18 0 20 -5 16 -27 -3 -15 0 -36 5 -47 9 -16 6 -23 -18 -40 -15 -11 -39
-33 -52 -47 -23 -27 -25 -27 -143 -25 -74 1 -123 -2 -128 -9 -5 -5 -12 -40
-15 -76 l-7 -67 -107 -1 c-59 0 -181 -5 -272 -10 -91 -6 -199 -12 -240 -14
-56 -3 -75 -7 -75 -18 0 -8 8 -13 18 -11 12 2 17 -4 17 -18 0 -18 -5 -21 -32
-18 -32 3 -33 2 -30 -30 l3 -33 -42 4 c-34 4 -42 1 -46 -14 -6 -20 -38 -26
-48 -9 -3 6 -1 10 6 10 10 0 10 3 2 11 -13 13 -36 2 -27 -13 9 -14 -15 -28
-47 -28 -30 0 -50 -17 -42 -36 4 -10 -5 -13 -31 -12 -42 1 -49 18 -8 18 15 0
22 3 15 8 -6 4 -105 7 -220 7 -176 -1 -208 -3 -208 -15 0 -12 20 -15 113 -14
62 1 109 -2 104 -5 -5 -3 -6 -15 -2 -26 7 -19 8 -19 15 -2 6 14 10 15 21 6 13
-11 19 -3 16 22 -1 4 9 7 22 7 18 0 22 -5 19 -19 -3 -11 -12 -19 -19 -19 -8 0
-14 -7 -14 -15 0 -11 -13 -14 -62 -12 -57 2 -63 0 -60 -17 3 -13 -1 -17 -12
-13 -9 4 -24 -2 -35 -15 -15 -15 -27 -19 -46 -14 -33 8 -73 -32 -81 -84 l-6
-37 -94 0 c-52 1 -94 5 -94 9 0 4 23 8 51 8 27 0 48 3 46 8 -8 12 -122 7 -120
-5 2 -7 -4 -28 -12 -47 -13 -30 -20 -36 -45 -36 -16 0 -39 4 -52 9 -13 6 -50
13 -83 17 l-60 7 39 9 c61 13 63 18 60 118 -2 52 1 88 6 85 5 -3 6 -13 3 -22
-4 -11 -2 -14 8 -11 14 5 15 35 3 94 -4 23 1 45 20 83 15 28 24 56 21 61 -3 5
2 13 11 18 10 5 18 23 19 41 1 24 -2 31 -17 31 -24 0 -23 25 2 50 13 13 32 19
55 18 30 -1 34 -4 29 -21 -4 -14 -2 -18 7 -15 9 3 13 17 11 37 -3 31 -2 32 30
29 27 -2 32 0 30 15 -2 13 2 17 15 15 13 -2 17 2 15 15 -3 15 2 18 29 15 34
-3 53 17 22 25 -10 2 -4 3 12 3 20 -1 30 4 30 14 0 10 -8 14 -24 12 -13 -1
-41 5 -61 14 l-38 17 15 32 c19 40 104 85 131 69 9 -5 62 -9 116 -9 l99 0 3
54 c4 88 15 132 32 137 38 12 47 22 47 55 l0 34 55 0 c76 -1 112 -12 108 -32
-2 -10 -14 -20 -28 -23 -32 -8 -37 -35 -9 -51 19 -10 25 -8 40 12 l18 24 46
-23 c30 -14 55 -20 71 -16 24 6 24 7 8 25 -15 17 -15 19 0 25 8 3 30 1 47 -5
43 -15 59 -14 59 4 0 21 -68 63 -120 74 -25 5 -65 16 -90 24 -122 40 -158 46
-275 45 -81 0 -129 -5 -146 -14 -15 -7 -46 -16 -70 -20 -24 -3 -55 -9 -69 -14
-14 -4 -65 -20 -115 -36 -49 -15 -97 -34 -106 -41 -8 -7 -20 -13 -26 -13 -13
0 -119 -77 -191 -139 -30 -25 -79 -79 -110 -119 -30 -40 -60 -76 -66 -80 -32
-21 -176 -370 -176 -427 0 -25 -32 -105 -42 -105 -9 0 -20 41 -18 61 2 8 2 23
1 34 -1 15 -4 16 -13 7 -21 -21 -18 -542 4 -657 10 -49 19 -103 22 -120 15
-93 121 -436 161 -522 8 -17 15 -34 15 -37 0 -4 11 -23 24 -44 13 -20 34 -64
47 -97 13 -33 34 -77 47 -98 12 -21 27 -48 33 -60 5 -12 19 -38 31 -57 11 -19
31 -53 42 -75 12 -22 43 -69 69 -105 25 -36 57 -79 69 -97 61 -84 152 -195
214 -258 158 -162 281 -227 454 -241 110 -9 222 16 413 90 208 82 219 85 363
92 95 5 137 3 200 -10 89 -19 193 -52 233 -72 14 -8 31 -14 38 -14 7 0 29 -7
50 -16 69 -30 77 -33 143 -48 107 -24 138 -26 196 -10 30 8 62 14 70 14 28 0
159 69 219 115 182 141 456 519 555 765 12 30 28 69 35 85 7 17 17 46 23 65 6
19 20 68 32 108 12 40 20 78 17 85 -3 7 -33 30 -68 52 -142 86 -252 191 -339
320 -25 37 -51 73 -57 80 -7 8 -13 20 -13 27 0 8 -4 18 -9 24 -14 14 -61 138
-61 160 0 11 -4 24 -9 30 -33 33 -53 422 -27 509 8 28 22 77 31 110 52 188
208 403 381 522 29 21 57 46 60 56 7 23 -30 79 -109 164 -103 109 -258 209
-387 248 -30 9 -66 21 -80 25 -94 33 -388 38 -495 9 -22 -6 -60 -14 -85 -19
-63 -12 -319 -95 -435 -141 -89 -35 -232 -34 -312 2 -23 10 -47 19 -53 19 -10
0 -122 48 -160 69 -8 4 -49 18 -90 30 -41 12 -86 26 -100 31 -30 11 -216 31
-268 29 -20 -1 -74 -5 -119 -10z m132 -248 c7 -12 -12 -24 -25 -16 -11 7 -4
25 10 25 5 0 11 -4 15 -9z m-48 -47 c8 -21 -14 -34 -59 -34 -47 0 -56 15 -21
34 37 20 72 20 80 0z m8 -133 c10 -17 -32 -31 -94 -31 -62 0 -91 6 -91 20 0
13 28 18 107 19 39 0 74 -3 78 -8z m5 -111 c0 -13 -17 -16 -95 -17 -86 -1 -95
1 -95 17 0 16 9 18 95 17 78 -1 95 -4 95 -17z m184 -609 c3 -5 -6 -8 -19 -8
-14 0 -25 3 -25 8 0 5 9 9 19 9 11 0 22 -4 25 -9z m-906 -220 c2 -36 0 -42
-15 -39 -13 2 -18 13 -19 38 -2 41 3 53 19 47 7 -2 13 -23 15 -46z m272 -191
c0 -16 -7 -20 -35 -20 -19 0 -35 5 -35 10 0 6 11 10 24 10 14 0 28 5 31 10 10
16 15 12 15 -10z"/>
<path d="M840 3135 c1 -26 2 -28 11 -12 8 14 8 22 0 30 -8 8 -11 3 -11 -18z"/>
<path d="M1390 3060 c-8 -5 -7 -10 2 -17 19 -14 53 -10 53 6 0 15 -37 22 -55
11z"/>
<path d="M782 2920 c0 -19 2 -27 5 -17 2 9 2 25 0 35 -3 9 -5 1 -5 -18z"/>
<path d="M2279 2899 c-9 -19 -9 -19 10 -10 11 6 30 11 42 11 29 0 16 13 -16
16 -17 2 -29 -4 -36 -17z"/>
</g>
</svg>
